<svg xmlns="http://www.w3.org/2000/svg" version="1.1" xmlns:xlink="http://www.w3.org/1999/xlink" xmlns:svgjs="http://svgjs.dev/svgjs" width="100%" height="100%" viewBox="0 0 1000 600"><rect width="1000" height="600" x="0" y="0" fill="#4dc69a"/><g><circle r="166.66666666666666" cx="486.0879923502604" cy="508.3104193997274" fill="#fcedda" transform="matrix(0.391332466741855,0,0,0.391332466741855,0,101.08163285913594)"/><path d="M424.3975279212762 512.0229981323855L424.3975279212762 512.0229981323855Q424.3975279212762 518.4209632291374 421.961605430311 524.0852167322253Q419.5550314030924 529.7788186990596 415.32885262358656 534.0049974785654Q411.10267384408064 538.2311762580713 405.4090718772464 540.6670987490365Q399.7448183741586 543.0736727762551 393.34685327740664 543.0736727762551L393.34685327740664 543.0736727762551L384.8944957183949 543.0736727762551Q378.496530621643 543.0736727762551 372.8029286548087 540.6670987490365Q367.138675151721 538.2311762580713 362.91249637221506 534.0049974785654Q358.6863175927092 529.7788186990596 356.250395101744 524.0852167322253Q353.8144726107788 518.4209632291374 353.8144726107788 512.0229981323855L353.8144726107788 512.0229981323855L353.8144726107788 464.36109300795823Q353.8144726107788 457.9631279112063 356.250395101744 452.29887440811854Q358.6863175927092 446.6052724412842 362.91249637221506 442.37909366177837Q367.138675151721 438.1529148822725 372.8029286548087 435.7169923913073Q378.496530621643 433.31041836408866 384.8944957183949 433.31041836408866L384.8944957183949 433.31041836408866L393.34685327740664 433.31041836408866Q399.7448183741586 433.31041836408866 405.4090718772464 435.7169923913073Q411.10267384408064 438.1529148822725 415.32885262358656 442.37909366177837Q419.5550314030924 446.6052724412842 421.961605430311 452.29887440811854Q424.3975279212762 457.9631279112063 424.3975279212762 464.36109300795823L424.3975279212762 464.36109300795823L424.3975279212762 489.2192418013018L366.52235741304304 489.2192418013018L366.52235741304304 512.7567097260497Q366.52235741304304 516.5720100131036 367.9604321366249 519.9177348802125Q369.39850686020674 523.2634597473213 371.8931262786651 525.7580791657797Q374.3583972333768 528.2233501204914 377.7041221004856 529.6614248440733Q381.079195431341 531.0994995676551 384.8944957183949 531.0994995676551L384.8944957183949 531.0994995676551L393.34685327740664 531.0994995676551Q397.1621535644606 531.0994995676551 400.5078784315694 529.6614248440733Q403.8829517624248 528.2233501204914 406.34822271713654 525.7580791657797Q408.81349367184833 523.2634597473213 410.2515683954302 519.9177348802125Q411.71899158275863 516.5720100131036 411.71899158275863 512.7567097260497L411.71899158275863 512.7567097260497L411.71899158275863 505.74242689061987L424.3975279212762 507.7968193528797L424.3975279212762 512.0229981323855ZM411.71899158275863 479.32880951870817L411.71899158275863 463.627381414294Q411.71899158275863 459.8120811272401 410.2515683954302 456.46635626013125Q408.81349367184833 453.12063139302245 406.34822271713654 450.62601197456416Q403.8829517624248 448.16074101985237 400.5078784315694 446.7226662962705Q397.1621535644606 445.25524310894207 393.34685327740664 445.25524310894207L393.34685327740664 445.25524310894207L384.8944957183949 445.25524310894207Q381.079195431341 445.25524310894207 377.7041221004856 446.7226662962705Q374.3583972333768 448.16074101985237 371.8931262786651 450.62601197456416Q369.39850686020674 453.12063139302245 367.9604321366249 456.46635626013125Q366.52235741304304 459.8120811272401 366.52235741304304 463.627381414294L366.52235741304304 463.627381414294L366.52235741304304 479.32880951870817L411.71899158275863 479.32880951870817ZM521.3942006036852 554.3434828549374L521.3942006036852 554.3434828549374Q521.3942006036852 560.7120994879429 518.9582781127201 566.0828683535649Q516.5517040855016 571.453637219187 512.296176842249 575.2689375062408Q508.0699980627432 579.0842377932948 502.4057445596555 581.1973271830476Q496.7414910565678 583.3104165728006 490.3435259598158 583.3104165728006L490.3435259598158 583.3104165728006L485.06080248543344 583.3104165728006Q478.66283738868145 583.3104165728006 472.99858388559375 581.1973271830476Q467.33433038250604 579.0842377932948 463.0788031392536 575.2689375062408Q458.8526243597477 571.453637219187 456.44605033252907 566.0828683535649Q454.01012784156393 560.7120994879429 454.01012784156393 554.3434828549374L454.01012784156393 554.3434828549374L454.01012784156393 553.903255898739Q454.01012784156393 547.7400785119595 456.2699595500497 542.5747488925634Q458.55913972228205 537.4094192731674 462.46248540057564 533.5941189861135L462.46248540057564 533.5941189861135Q457.5319434911521 530.6005756839635 454.5677486527487 525.4939429920605Q451.6329022780919 520.3873103001577 451.6329022780919 514.1947844496317L451.6329022780919 514.1947844496317Q451.6329022780919 508.6185763377836 454.01012784156393 503.8347767470929Q456.387353405036 499.02162869265567 460.52548679330215 496.0280853905057L460.52548679330215 496.0280853905057Q455.56559642013207 491.71386121976013 452.66009850922177 485.60938076047387Q449.783949062058 479.53424876493415 449.783949062058 472.3145266832783L449.783949062058 472.3145266832783L449.783949062058 464.36109300795823Q449.783949062058 457.9631279112063 452.2198715530232 452.29887440811854Q454.62644558024186 446.6052724412842 458.8526243597477 442.37909366177837Q463.0788031392536 438.1529148822725 468.7724051060879 435.7169923913073Q474.43665860917565 433.31041836408866 480.8346237059275 433.31041836408866L480.8346237059275 433.31041836408866L486.0879987165634 433.31041836408866Q493.8359931456575 433.31041836408866 500.38070056114225 436.7441886224372Q506.9547564403736 440.2073073445323 511.26898061111916 446.1063485575925L511.26898061111916 446.1063485575925L518.1952180553094 435.36481082634845L522.4213968348151 435.36481082634845L522.4213968348151 472.3145266832783Q522.4213968348151 478.71249178003023 519.98547434385 484.376745283118Q517.5789003166315 490.0409987862057 513.3527215371255 494.26717756571156Q509.0971942938731 498.522704808964 503.4329407907854 500.9292788361827Q497.7686872876976 503.3652013271478 491.3707221909457 503.3652013271478L491.3707221909457 503.3652013271478L472.99858388559375 503.3652013271478Q470.8267975683477 503.3652013271478 468.8604504973276 504.2456552395449Q466.9234518900541 505.12610915194193 465.4266802389791 506.5641838755238Q463.9299085879041 508.0022585991057 463.0788031392536 510.0273025976189Q462.25704615434967 512.0229981323855 462.25704615434967 514.1947844496317L462.25704615434967 514.1947844496317Q462.25704615434967 516.3665707668777 463.0788031392536 518.3329178378979Q463.9299085879041 520.2699164451714 465.4266802389791 521.7666880962463Q466.9234518900541 523.2634597473213 468.8604504973276 524.0852167322253Q470.8267975683477 524.9363221808758 472.99858388559375 524.9363221808758L472.99858388559375 524.9363221808758L490.3435259598158 524.9363221808758Q496.7414910565678 524.9363221808758 502.4057445596555 527.0494115706286Q508.0699980627432 529.1625009603816 512.296176842249 532.9778012474355Q516.5517040855016 536.7931015344894 518.9582781127201 542.1638704001115Q521.3942006036852 547.505290801987 521.3942006036852 553.903255898739L521.3942006036852 553.903255898739L521.3942006036852 554.3434828549374ZM509.8309058875373 473.0188898131959L509.8309058875373 463.627381414294Q509.8309058875373 459.8120811272401 508.39283116395546 456.46635626013125Q506.9547564403736 453.12063139302245 504.4014400944221 450.62601197456416Q501.87747221221724 448.16074101985237 498.5317473451084 446.7226662962705Q495.18602247799964 445.25524310894207 491.3707221909457 445.25524310894207L491.3707221909457 445.25524310894207L480.8346237059275 445.25524310894207Q477.0193234188736 445.25524310894207 473.6735985517648 446.7226662962705Q470.327873684656 448.16074101985237 467.8332542661977 450.62601197456416Q465.36798331148594 453.12063139302245 463.9299085879041 456.46635626013125Q462.46248540057564 459.8120811272401 462.46248540057564 463.627381414294L462.46248540057564 463.627381414294L462.46248540057564 473.0188898131959Q462.46248540057564 476.8341901002499 463.9299085879041 480.2092634311052Q465.36798331148594 483.5549882982141 467.8332542661977 486.0202592529258Q470.327873684656 488.51487867138417 473.6735985517648 489.952953394966Q477.0193234188736 491.39102811854787 480.8346237059275 491.39102811854787L480.8346237059275 491.39102811854787L491.3707221909457 491.39102811854787Q495.18602247799964 491.39102811854787 498.5317473451084 489.952953394966Q501.87747221221724 488.51487867138417 504.4014400944221 486.0202592529258Q506.9547564403736 483.5549882982141 508.39283116395546 480.2092634311052Q509.8309058875373 476.8341901002499 509.8309058875373 473.0188898131959L509.8309058875373 473.0188898131959ZM509.30263354009907 554.9598005936153L509.30263354009907 553.286938160061Q509.30263354009907 549.471637873007 507.8645588165172 546.4487461071105Q506.42648409293537 543.3965058774673 503.9612131382236 541.3421134152076Q501.4665937197653 539.2583724892012 498.12086885265643 538.1431308668316Q494.7751439855477 536.9985407807154 490.9598436984937 536.9985407807154L490.9598436984937 536.9985407807154L484.4444847467555 536.9985407807154Q480.62918445970155 536.9985407807154 477.2834595925928 538.1431308668316Q473.93773472548395 539.2583724892012 471.4431153070256 541.3421134152076Q468.97784435231387 543.3965058774673 467.539769628732 546.4487461071105Q466.07234644140357 549.471637873007 466.07234644140357 553.286938160061L466.07234644140357 553.286938160061L466.07234644140357 554.9598005936153Q466.07234644140357 558.7751008806692 467.539769628732 561.7686441828193Q468.97784435231387 564.7621874849693 471.4431153070256 566.8752768747222Q473.93773472548395 568.9883662644751 477.2834595925928 570.1036078868448Q480.62918445970155 571.2481979729611 484.4444847467555 571.2481979729611L484.4444847467555 571.2481979729611L490.9598436984937 571.2481979729611Q494.7751439855477 571.2481979729611 498.12086885265643 570.1036078868448Q501.4665937197653 568.9883662644751 503.9612131382236 566.8752768747222Q506.42648409293537 564.7621874849693 507.8645588165172 561.7686441828193Q509.30263354009907 558.7751008806692 509.30263354009907 554.9598005936153L509.30263354009907 554.9598005936153ZM617.3343285912181 554.3434828549374L617.3343285912181 554.3434828549374Q617.3343285912181 560.7120994879429 614.9277545639993 566.0828683535649Q612.4918320730342 571.453637219187 608.2656532935282 575.2689375062408Q604.0394745140225 579.0842377932948 598.345872547188 581.1973271830476Q592.6816190441004 583.3104165728006 586.2836539473485 583.3104165728006L586.2836539473485 583.3104165728006L581.0302789367126 583.3104165728006Q574.6323138399607 583.3104165728006 568.9680603368729 581.1973271830476Q563.2744583700387 579.0842377932948 559.0482795905327 575.2689375062408Q554.822100811027 571.453637219187 552.3861783200618 566.0828683535649Q549.9796042928431 560.7120994879429 549.9796042928431 554.3434828549374L549.9796042928431 554.3434828549374L549.9796042928431 553.903255898739Q549.9796042928431 547.7400785119595 552.2394360013288 542.5747488925634Q554.4992677098146 537.4094192731674 558.431961851855 533.5941189861135L558.431961851855 533.5941189861135Q553.4720714786847 530.6005756839635 550.537225104028 525.4939429920605Q547.6023787293711 520.3873103001577 547.6023787293711 514.1947844496317L547.6023787293711 514.1947844496317Q547.6023787293711 508.6185763377836 549.9796042928431 503.8347767470929Q552.3274813925686 499.02162869265567 556.4656147808348 496.0280853905057L556.4656147808348 496.0280853905057Q551.5057244076647 491.71386121976013 548.629574960501 485.60938076047387Q545.7240770495907 479.53424876493415 545.7240770495907 472.3145266832783L545.7240770495907 472.3145266832783L545.7240770495907 464.36109300795823Q545.7240770495907 457.9631279112063 548.1599995405559 452.29887440811854Q550.595922031521 446.6052724412842 554.822100811027 442.37909366177837Q559.0482795905327 438.1529148822725 564.7125330936206 435.7169923913073Q570.406135060455 433.31041836408866 576.8041001572067 433.31041836408866L576.8041001572067 433.31041836408866L582.0574751678425 433.31041836408866Q589.8054695969367 433.31041836408866 596.3501770124215 436.7441886224372Q602.8948844279062 440.2073073445323 607.2384570623983 446.1063485575925L607.2384570623983 446.1063485575925L614.135346042842 435.36481082634845L618.3615248223477 435.36481082634845L618.3615248223477 472.3145266832783Q618.3615248223477 478.71249178003023 615.9549507951292 484.376745283118Q613.5190283041641 490.0409987862057 609.2928495246581 494.26717756571156Q605.0666707451524 498.522704808964 599.4024172420645 500.9292788361827Q593.7088152752303 503.3652013271478 587.3108501784784 503.3652013271478L587.3108501784784 503.3652013271478L568.9680603368729 503.3652013271478Q566.7962740196269 503.3652013271478 564.8299269486067 504.2456552395449Q562.8635798775867 505.12610915194193 561.3668082265117 506.5641838755238Q559.8700365754366 508.0022585991057 559.0482795905327 510.0273025976189Q558.2265226056288 512.0229981323855 558.2265226056288 514.1947844496317L558.2265226056288 514.1947844496317Q558.2265226056288 516.3665707668777 559.0482795905327 518.3329178378979Q559.8700365754366 520.2699164451714 561.3668082265117 521.7666880962463Q562.8635798775867 523.2634597473213 564.8299269486067 524.0852167322253Q566.7962740196269 524.9363221808758 568.9680603368729 524.9363221808758L568.9680603368729 524.9363221808758L586.2836539473485 524.9363221808758Q592.6816190441004 524.9363221808758 598.345872547188 527.0494115706286Q604.0394745140225 529.1625009603816 608.2656532935282 532.9778012474355Q612.4918320730342 536.7931015344894 614.9277545639993 542.1638704001115Q617.3343285912181 547.505290801987 617.3343285912181 553.903255898739L617.3343285912181 553.903255898739L617.3343285912181 554.3434828549374ZM605.8003823388165 473.0188898131959L605.8003823388165 463.627381414294Q605.8003823388165 459.8120811272401 604.332959151488 456.46635626013125Q602.8948844279062 453.12063139302245 600.3709165457014 450.62601197456416Q597.8469486634965 448.16074101985237 594.5012237963876 446.7226662962705Q591.1261504655322 445.25524310894207 587.3108501784784 445.25524310894207L587.3108501784784 445.25524310894207L576.8041001572067 445.25524310894207Q572.9887998701529 445.25524310894207 569.6137265392974 446.7226662962705Q566.2680016721886 448.16074101985237 563.8027307174771 450.62601197456416Q561.3081112990185 453.12063139302245 559.8700365754366 456.46635626013125Q558.431961851855 459.8120811272401 558.431961851855 463.627381414294L558.431961851855 463.627381414294L558.431961851855 473.0188898131959Q558.431961851855 476.8341901002499 559.8700365754366 480.2092634311052Q561.3081112990185 483.5549882982141 563.8027307174771 486.0202592529258Q566.2680016721886 488.51487867138417 569.6137265392974 489.952953394966Q572.9887998701529 491.39102811854787 576.8041001572067 491.39102811854787L576.8041001572067 491.39102811854787L587.3108501784784 491.39102811854787Q591.1261504655322 491.39102811854787 594.5012237963876 489.952953394966Q597.8469486634965 488.51487867138417 600.3709165457014 486.0202592529258Q602.8948844279062 483.5549882982141 604.332959151488 480.2092634311052Q605.8003823388165 476.8341901002499 605.8003823388165 473.0188898131959L605.8003823388165 473.0188898131959ZM605.2721099913783 554.9598005936153L605.2721099913783 553.286938160061Q605.2721099913783 549.471637873007 603.8340352677965 546.4487461071105Q602.3959605442146 543.3965058774673 599.9013411257563 541.3421134152076Q597.4360701710445 539.2583724892012 594.0903453039357 538.1431308668316Q590.7152719730802 536.9985407807154 586.8999716860264 536.9985407807154L586.8999716860264 536.9985407807154L580.4139611980347 536.9985407807154Q576.5986609109809 536.9985407807154 573.2235875801255 538.1431308668316Q569.8778627130166 539.2583724892012 567.4125917583049 541.3421134152076Q564.9179723398465 543.3965058774673 563.4798976162647 546.4487461071105Q562.0418228926828 549.471637873007 562.0418228926828 553.286938160061L562.0418228926828 553.286938160061L562.0418228926828 554.9598005936153Q562.0418228926828 558.7751008806692 563.4798976162647 561.7686441828193Q564.9179723398465 564.7621874849693 567.4125917583049 566.8752768747222Q569.8778627130166 568.9883662644751 573.2235875801255 570.1036078868448Q576.5986609109809 571.2481979729611 580.4139611980347 571.2481979729611L580.4139611980347 571.2481979729611L586.8999716860264 571.2481979729611Q590.7152719730802 571.2481979729611 594.0903453039357 570.1036078868448Q597.4360701710445 568.9883662644751 599.9013411257563 566.8752768747222Q602.3959605442146 564.7621874849693 603.8340352677965 561.7686441828193Q605.2721099913783 558.7751008806692 605.2721099913783 554.9598005936153L605.2721099913783 554.9598005936153Z " fill="#ee4e34" transform="matrix(0.391332466741855,0,0,0.391332466741855,0,101.08163285913594)"/><path d="M801.0277252084544 550.3255310735158L736.0880017341354 550.3255310735158L736.0880017341354 434.93563116726204L801.0277252084544 434.93563116726204L801.0277252084544 444.8242319923963L746.4572984327137 444.8242319923963L746.4572984327137 487.72061612735354L790.6355382301884 487.72061612735354L790.6355382301884 497.60921695248777L746.4572984327137 497.60921695248777L746.4572984327137 540.4369302483816L801.0277252084544 540.4369302483816L801.0277252084544 550.3255310735158ZM870.865968535965 550.3255310735158L860.1762079217573 550.3255310735158L842.5506925621431 518.6911645449615L824.9251772025287 550.3255310735158L814.2125263086334 550.3255310735158L837.3088185136344 509.12302763545654L814.2125263086334 467.9205241973973L824.9251772025287 467.9205241973973L842.5506925621431 499.5548907259517L860.1762079217573 467.9205241973973L870.865968535965 467.9205241973973L847.8612374497152 509.12302763545654L870.865968535965 550.3255310735158ZM926.3977870585937 550.3255310735158L917.3790168615963 550.3255310735158Q912.8696317630976 550.3255310735158 908.8867230974186 548.6316503766178Q904.9038144317394 546.9377696797198 901.9738586316997 543.9620333203045Q899.0439028316599 540.986296960889 897.3042415753863 537.0491688545856Q895.5874705988005 533.1120407482822 895.5874705988005 528.6026556497834L895.5874705988005 528.6026556497834L895.5874705988005 477.32842914908747L880.777459640787 477.32842914908747L880.777459640787 467.9205241973973L895.5874705988005 467.9205241973973L895.5874705988005 448.120432267441L905.4760714239347 446.51811268929424L905.4760714239347 467.9205241973973L926.3977870585937 467.9205241973973L926.3977870585937 477.32842914908747L905.4760714239347 477.32842914908747L905.4760714239347 529.0833515232275Q905.4760714239347 531.5783920091989 906.3916826114472 533.7071880201653Q907.3301840786473 535.8359840311316 908.9325036567942 537.4383036092784Q910.5348232349409 539.0635134671129 912.7093998052829 539.9791246546254Q914.8839763756249 540.9176261218256 917.3790168615963 540.9176261218256L917.3790168615963 540.9176261218256L926.3977870585937 540.9176261218256L926.3977870585937 550.3255310735158ZM978.7020761452412 477.32842914908747L968.8134753201069 477.32842914908747Q965.8377389606916 477.32842914908747 963.2053567965933 478.472943133478Q960.5958649121828 479.59456683818075 958.6730814184068 481.51735033195683Q956.7274076449429 483.46302410542074 955.6057839402401 486.0725159898312Q954.4841602355374 488.6820078742416 954.4841602355374 491.65774423365696L954.4841602355374 491.65774423365696L954.4841602355374 550.3255310735158L944.5955594104032 550.3255310735158L944.5955594104032 467.9205241973973L947.8917596854479 467.9205241973973L953.2709754120835 476.29836656313597Q956.6587368058795 471.69742034588603 961.7632691762612 468.9963673427244Q966.867801546643 466.31820461925054 972.9108353842252 466.31820461925054L972.9108353842252 466.31820461925054L978.7020761452412 466.31820461925054L978.7020761452412 477.32842914908747ZM1046.9379998946051 527.7099347419588L1046.9379998946051 527.7099347419588Q1046.9379998946051 532.7000157139016 1045.0609969602046 537.1178396936491Q1043.1611037461162 541.5585539530844 1039.8649034710716 544.8547542281291Q1036.5687031960265 548.1509545031738 1032.150879216279 550.0508477172621Q1027.710164956844 551.9278506516625 1022.7200839849012 551.9278506516625L1022.7200839849012 551.9278506516625L1016.1276834348117 551.9278506516625Q1011.137602462869 551.9278506516625 1006.7197784831216 550.0508477172621Q1002.2790642236862 548.1509545031738 998.9828639486415 544.8547542281291Q995.6866636735967 541.5585539530844 993.7867704595084 537.1178396936491Q991.909767525108 532.7000157139016 991.909767525108 527.7099347419588L991.909767525108 527.7099347419588L991.909767525108 490.53612052895426Q991.909767525108 485.5460395570115 993.7867704595084 481.12821557726403Q995.6866636735967 476.6875013178288 998.9828639486415 473.39130104278405Q1002.2790642236862 470.09510076773927 1006.7197784831216 468.195207553651Q1011.137602462869 466.31820461925054 1016.1276834348117 466.31820461925054L1016.1276834348117 466.31820461925054L1022.7200839849012 466.31820461925054Q1027.710164956844 466.31820461925054 1032.150879216279 468.195207553651Q1036.5687031960265 470.09510076773927 1039.8649034710716 473.39130104278405Q1043.1611037461162 476.6875013178288 1045.0609969602046 481.12821557726403Q1046.9379998946051 485.5460395570115 1046.9379998946051 490.53612052895426L1046.9379998946051 490.53612052895426L1046.9379998946051 509.9241874245299L1001.7983683502422 509.9241874245299L1001.7983683502422 528.2821917341541Q1001.7983683502422 531.2579280935695 1002.9199920549448 533.8674199779799Q1004.0645060393355 536.4769118623904 1005.9872895331115 538.4225856358543Q1007.9100730268876 540.3453691296304 1010.5424551909858 541.466992834333Q1013.1519470753964 542.5886165390358 1016.1276834348117 542.5886165390358L1016.1276834348117 542.5886165390358L1022.7200839849012 542.5886165390358Q1025.6958203443164 542.5886165390358 1028.328202508415 541.466992834333Q1030.9376943928255 540.3453691296304 1032.8604778866015 538.4225856358543Q1034.806151660065 536.4769118623904 1035.927775364768 533.8674199779799Q1037.0493990694708 531.2579280935695 1037.0493990694708 528.2821917341541L1037.0493990694708 528.2821917341541L1037.0493990694708 522.8114148887673L1046.9379998946051 524.4137344669141L1046.9379998946051 527.7099347419588ZM1037.0493990694708 502.2101631697377L1037.0493990694708 489.963863536759Q1037.0493990694708 486.9881271773436 1035.927775364768 484.37863529293315Q1034.806151660065 481.7691434085227 1032.8604778866015 479.8234696350588Q1030.9376943928255 477.90068614128273 1028.328202508415 476.77906243658003Q1025.6958203443164 475.63454845218945 1022.7200839849012 475.63454845218945L1022.7200839849012 475.63454845218945L1016.1276834348117 475.63454845218945Q1013.1519470753964 475.63454845218945 1010.5424551909858 476.77906243658003Q1007.9100730268876 477.90068614128273 1005.9872895331115 479.8234696350588Q1004.0645060393355 481.7691434085227 1002.9199920549448 484.37863529293315Q1001.7983683502422 486.9881271773436 1001.7983683502422 489.963863536759L1001.7983683502422 489.963863536759L1001.7983683502422 502.2101631697377L1037.0493990694708 502.2101631697377ZM1163.6326457430641 550.3255310735158L1153.7440449179298 550.3255310735158L1153.7440449179298 489.963863536759Q1153.7440449179298 486.9881271773436 1152.599530933539 484.37863529293315Q1151.4779072288366 481.7691434085227 1149.5551237350605 479.8234696350588Q1147.6094499615965 477.90068614128273 1144.999958077186 476.77906243658003Q1142.3904661927754 475.63454845218945 1139.41472983336 475.63454845218945L1139.41472983336 475.63454845218945L1134.4933197004807 475.63454845218945Q1131.5175833410653 475.63454845218945 1128.9080914566553 476.77906243658003Q1126.2985995722447 477.90068614128273 1124.3300355190931 479.8234696350588Q1122.3614714659411 481.7691434085227 1121.2169574815507 484.37863529293315Q1120.0953337768478 486.9881271773436 1120.0953337768478 489.963863536759L1120.0953337768478 489.963863536759L1120.0953337768478 550.3255310735158L1110.275403790777 550.3255310735158L1110.275403790777 489.963863536759Q1110.275403790777 486.9881271773436 1109.1537800860742 484.37863529293315Q1108.0321563813718 481.7691434085227 1106.0635923282198 479.8234696350588Q1104.0950282750682 477.90068614128273 1101.4626461109701 476.77906243658003Q1098.8531542265596 475.63454845218945 1095.8774178671442 475.63454845218945L1095.8774178671442 475.63454845218945L1090.9560077342649 475.63454845218945Q1087.9802713748495 475.63454845218945 1085.370779490439 476.77906243658003Q1082.7612876060289 477.90068614128273 1080.8385041122524 479.8234696350588Q1078.8928303387888 481.7691434085227 1077.771206634086 484.37863529293315Q1076.649582929383 486.9881271773436 1076.649582929383 489.963863536759L1076.649582929383 489.963863536759L1076.649582929383 550.3255310735158L1066.7380918245613 550.3255310735158L1066.7380918245613 467.9205241973973L1070.0342920996059 467.9205241973973L1075.4363981059291 476.29836656313597Q1078.8241594997253 471.69742034588603 1083.9286918701068 468.9963673427244Q1089.0332242404888 466.31820461925054 1095.0762580780706 466.31820461925054L1095.0762580780706 466.31820461925054L1095.8774178671442 466.31820461925054Q1102.8818434516143 466.31820461925054 1108.5128522548157 469.77463685210995Q1114.1438610580171 473.23106908496936 1117.211158536184 478.953639006922L1117.211158536184 478.953639006922Q1118.7219169955792 476.13813460532134 1120.9880546846725 473.8033260771646Q1123.2313020940783 471.4685175490079 1125.9781356566154 469.82041741148555Q1128.7020789394646 468.1723172739632 1131.9296083754462 467.23381580676295Q1135.1571378114277 466.31820461925054 1138.613570044287 466.31820461925054L1138.613570044287 466.31820461925054L1139.41472983336 466.31820461925054Q1144.404810805303 466.31820461925054 1148.8226347850505 468.195207553651Q1153.2633490444855 470.09510076773927 1156.5595493195306 473.39130104278405Q1159.8557495945752 476.6875013178288 1161.7327525289757 481.12821557726403Q1163.6326457430641 485.5460395570115 1163.6326457430641 490.53612052895426L1163.6326457430641 490.53612052895426L1163.6326457430641 550.3255310735158ZM1238.4838603222047 527.7099347419588L1238.4838603222047 527.7099347419588Q1238.4838603222047 532.7000157139016 1236.5839671081167 537.1178396936491Q1234.6840738940282 541.5585539530844 1231.3878736189836 544.8547542281291Q1228.091673343939 548.1509545031738 1223.6738493641915 550.0508477172621Q1219.233135104756 551.9278506516625 1214.2430541328135 551.9278506516625L1214.2430541328135 551.9278506516625L1207.6506535827239 551.9278506516625Q1202.660572610781 551.9278506516625 1198.2427486310335 550.0508477172621Q1193.8020343715984 548.1509545031738 1190.5058340965538 544.8547542281291Q1187.2096338215088 541.5585539530844 1185.3326308871083 537.1178396936491Q1183.4327376730203 532.7000157139016 1183.4327376730203 527.7099347419588L1183.4327376730203 527.7099347419588L1183.4327376730203 490.53612052895426Q1183.4327376730203 485.5460395570115 1185.3326308871083 481.12821557726403Q1187.2096338215088 476.6875013178288 1190.5058340965538 473.39130104278405Q1193.8020343715984 470.09510076773927 1198.2427486310335 468.195207553651Q1202.660572610781 466.31820461925054 1207.6506535827239 466.31820461925054L1207.6506535827239 466.31820461925054L1214.2430541328135 466.31820461925054Q1219.233135104756 466.31820461925054 1223.6738493641915 468.195207553651Q1228.091673343939 470.09510076773927 1231.3878736189836 473.39130104278405Q1234.6840738940282 476.6875013178288 1236.5839671081167 481.12821557726403Q1238.4838603222047 485.5460395570115 1238.4838603222047 490.53612052895426L1238.4838603222047 490.53612052895426L1238.4838603222047 509.9241874245299L1193.3213384981545 509.9241874245299L1193.3213384981545 528.2821917341541Q1193.3213384981545 531.2579280935695 1194.465852482545 533.8674199779799Q1195.5874761872478 536.4769118623904 1197.5102596810239 538.4225856358543Q1199.4559334544879 540.3453691296304 1202.065425338898 541.466992834333Q1204.6749172233085 542.5886165390358 1207.6506535827239 542.5886165390358L1207.6506535827239 542.5886165390358L1214.2430541328135 542.5886165390358Q1217.218790492229 542.5886165390358 1219.851172656327 541.466992834333Q1222.4606645407375 540.3453691296304 1224.3834480345135 538.4225856358543Q1226.3291218079776 536.4769118623904 1227.45074551268 533.8674199779799Q1228.5723692173829 531.2579280935695 1228.5723692173829 528.2821917341541L1228.5723692173829 528.2821917341541L1228.5723692173829 522.8114148887673L1238.4838603222047 524.4137344669141L1238.4838603222047 527.7099347419588ZM1228.5723692173829 502.2101631697377L1228.5723692173829 489.963863536759Q1228.5723692173829 486.9881271773436 1227.45074551268 484.37863529293315Q1226.3291218079776 481.7691434085227 1224.3834480345135 479.8234696350588Q1222.4606645407375 477.90068614128273 1219.851172656327 476.77906243658003Q1217.218790492229 475.63454845218945 1214.2430541328135 475.63454845218945L1214.2430541328135 475.63454845218945L1207.6506535827239 475.63454845218945Q1204.6749172233085 475.63454845218945 1202.065425338898 476.77906243658003Q1199.4559334544879 477.90068614128273 1197.5102596810239 479.8234696350588Q1195.5874761872478 481.7691434085227 1194.465852482545 484.37863529293315Q1193.3213384981545 486.9881271773436 1193.3213384981545 489.963863536759L1193.3213384981545 489.963863536759L1193.3213384981545 502.2101631697377L1228.5723692173829 502.2101631697377ZM1271.4687533523402 550.3255310735158L1261.5801525272059 550.3255310735158L1261.5801525272059 434.93563116726204L1271.4687533523402 434.93563116726204L1271.4687533523402 550.3255310735158ZM1349.6161682065258 467.9205241973973L1307.932968895023 583.3104241036511L1298.3419417058299 583.3104241036511L1312.991720706029 543.2524346499823L1286.2787643103538 467.9205241973973L1296.1673651354881 467.9205241973973L1317.661337762342 530.3652071857449L1317.9818016779718 534.6227992076776L1318.302265593601 530.3652071857449L1339.704677101704 467.9205241973973L1349.6161682065258 467.9205241973973ZM1463.9531152471404 489.6433996211296L1463.9531152471404 550.3255310735158L1460.6569149720958 550.3255310735158L1454.6367714142016 541.0778580796402Q1450.836984986025 546.067939051583 1445.4577692593894 548.9978948516228Q1440.055663253066 551.9278506516625 1433.4632627029769 551.9278506516625L1433.4632627029769 551.9278506516625L1427.4202288653946 551.9278506516625Q1421.560317265315 551.9278506516625 1416.364223776182 549.7303838016328Q1411.1681302870488 547.510026671915 1407.2996730198088 543.6415694046751Q1403.4541060322567 539.7731121374351 1401.233748902539 534.6227992076776Q1399.0133917728213 529.4724862779203 1399.0133917728213 523.6125746778407L1399.0133917728213 523.6125746778407L1399.0133917728213 461.64858756293717Q1399.0133917728213 455.7657856831698 1401.233748902539 450.61547275341235Q1403.4541060322567 445.465159823655 1407.2996730198088 441.596702556415Q1411.1681302870488 437.75113556886276 1416.364223776182 435.5307784391451Q1421.560317265315 433.31042130942745 1427.4202288653946 433.31042130942745L1427.4202288653946 433.31042130942745L1435.6378392733186 433.31042130942745Q1441.5206411530858 433.31042130942745 1446.6709540828433 435.5307784391451Q1451.8212670126009 437.75113556886276 1455.666834000153 441.596702556415Q1459.535291267393 445.465159823655 1461.7556483971107 450.61547275341235Q1463.9531152471404 455.7657856831698 1463.9531152471404 461.64858756293717L1463.9531152471404 461.64858756293717L1463.9531152471404 466.31820461925054L1453.5838185485622 467.9205241973973L1453.5838185485622 461.64858756293717Q1453.5838185485622 457.7801302956971 1452.1417309282301 454.43814946127674Q1450.6767530282104 451.0961686268564 1448.181712542239 448.601128140885Q1445.6866720562675 446.10608765491367 1442.344691221847 444.6640000345816Q1439.0256006671148 443.2219124142495 1435.1571433998747 443.2219124142495L1435.1571433998747 443.2219124142495L1427.9009247388385 443.2219124142495Q1424.0553577512865 443.2219124142495 1420.7133769168659 444.6640000345816Q1417.3713960824457 446.10608765491367 1414.8305750370987 448.601128140885Q1412.2897539917517 451.0961686268564 1410.8476663714196 454.43814946127674Q1409.4055787510874 457.7801302956971 1409.4055787510874 461.64858756293717L1409.4055787510874 461.64858756293717L1409.4055787510874 523.6125746778407Q1409.4055787510874 527.4810319450808 1410.8476663714196 530.8001224998134Q1412.2897539917517 534.1421033342336 1414.8305750370987 536.6829243795806Q1417.3713960824457 539.2237454249276 1420.7133769168659 540.6658330452597Q1424.0553577512865 542.1079206655918 1427.9009247388385 542.1079206655918L1427.9009247388385 542.1079206655918L1435.1571433998747 542.1079206655918Q1439.0256006671148 542.1079206655918 1442.344691221847 540.6658330452597Q1445.6866720562675 539.2237454249276 1448.181712542239 536.6829243795806Q1450.6767530282104 534.1421033342336 1452.1417309282301 530.8001224998134Q1453.5838185485622 527.4810319450808 1453.5838185485622 523.6125746778407L1453.5838185485622 523.6125746778407L1453.5838185485622 499.5548907259517L1435.1571433998747 499.5548907259517L1435.1571433998747 489.6433996211296L1463.9531152471404 489.6433996211296ZM1519.5764948885203 477.32842914908747L1509.6650037836985 477.32842914908747Q1506.6892674242831 477.32842914908747 1504.0797755398726 478.472943133478Q1501.470283655462 479.59456683818075 1499.5246098819985 481.51735033195683Q1497.601826388222 483.46302410542074 1496.4802026835196 486.0725159898312Q1495.3356886991287 488.6820078742416 1495.3356886991287 491.65774423365696L1495.3356886991287 491.65774423365696L1495.3356886991287 550.3255310735158L1485.4470878739949 550.3255310735158L1485.4470878739949 467.9205241973973L1488.7432881490395 467.9205241973973L1494.1453941553627 476.29836656313597Q1497.510265269471 471.69742034588603 1502.6376879195404 468.9963673427244Q1507.7422202899224 466.31820461925054 1513.7852541275042 466.31820461925054L1513.7852541275042 466.31820461925054L1519.5764948885203 466.31820461925054L1519.5764948885203 477.32842914908747ZM1587.812418637884 527.7099347419588L1587.812418637884 527.7099347419588Q1587.812418637884 532.7000157139016 1585.9125254237956 537.1178396936491Q1584.0355224893956 541.5585539530844 1580.7393222143505 544.8547542281291Q1577.4202316596184 548.1509545031738 1573.0024076798704 550.0508477172621Q1568.584583700123 551.9278506516625 1563.5945027281805 551.9278506516625L1563.5945027281805 551.9278506516625L1556.9792118984033 551.9278506516625Q1551.9891309264603 551.9278506516625 1547.5713069467129 550.0508477172621Q1543.1534829669654 548.1509545031738 1539.8572826919208 544.8547542281291Q1536.5381921371882 541.5585539530844 1534.6611892027877 537.1178396936491Q1532.7612959886997 532.7000157139016 1532.7612959886997 527.7099347419588L1532.7612959886997 527.7099347419588L1532.7612959886997 490.53612052895426Q1532.7612959886997 485.5460395570115 1534.6611892027877 481.12821557726403Q1536.5381921371882 476.6875013178288 1539.8572826919208 473.39130104278405Q1543.1534829669654 470.09510076773927 1547.5713069467129 468.195207553651Q1551.9891309264603 466.31820461925054 1556.9792118984033 466.31820461925054L1556.9792118984033 466.31820461925054L1563.5945027281805 466.31820461925054Q1568.584583700123 466.31820461925054 1573.0024076798704 468.195207553651Q1577.4202316596184 470.09510076773927 1580.7393222143505 473.39130104278405Q1584.0355224893956 476.6875013178288 1585.9125254237956 481.12821557726403Q1587.812418637884 485.5460395570115 1587.812418637884 490.53612052895426L1587.812418637884 490.53612052895426L1587.812418637884 509.9241874245299L1542.6727870935215 509.9241874245299L1542.6727870935215 528.2821917341541Q1542.6727870935215 531.2579280935695 1543.7944107982244 533.8674199779799Q1544.9160345029268 536.4769118623904 1546.8388179967028 538.4225856358543Q1548.7844917701668 540.3453691296304 1551.3939836545774 541.466992834333Q1554.0034755389875 542.5886165390358 1556.9792118984033 542.5886165390358L1556.9792118984033 542.5886165390358L1563.5945027281805 542.5886165390358Q1566.5702390875958 542.5886165390358 1569.1797309720064 541.466992834333Q1571.7892228564165 540.3453691296304 1573.7348966298805 538.4225856358543Q1575.657680123657 536.4769118623904 1576.7793038283594 533.8674199779799Q1577.9238178127503 531.2579280935695 1577.9238178127503 528.2821917341541L1577.9238178127503 528.2821917341541L1577.9238178127503 522.8114148887673L1587.812418637884 524.4137344669141L1587.812418637884 527.7099347419588ZM1577.9238178127503 502.2101631697377L1577.9238178127503 489.963863536759Q1577.9238178127503 486.9881271773436 1576.7793038283594 484.37863529293315Q1575.657680123657 481.7691434085227 1573.7348966298805 479.8234696350588Q1571.7892228564165 477.90068614128273 1569.1797309720064 476.77906243658003Q1566.5702390875958 475.63454845218945 1563.5945027281805 475.63454845218945L1563.5945027281805 475.63454845218945L1556.9792118984033 475.63454845218945Q1554.0034755389875 475.63454845218945 1551.3939836545774 476.77906243658003Q1548.7844917701668 477.90068614128273 1546.8388179967028 479.8234696350588Q1544.9160345029268 481.7691434085227 1543.7944107982244 484.37863529293315Q1542.6727870935215 486.9881271773436 1542.6727870935215 489.963863536759L1542.6727870935215 489.963863536759L1542.6727870935215 502.2101631697377L1577.9238178127503 502.2101631697377ZM1662.6407429373376 550.3255310735158L1659.344542662293 550.3255310735158L1653.8737658169057 542.1079206655918Q1650.508894702798 546.548634925027 1645.4272526121035 549.2496879281887Q1640.3685008010975 551.9278506516625 1634.3254669635157 551.9278506516625L1634.3254669635157 551.9278506516625L1631.8304264775443 551.9278506516625Q1626.8403455056014 551.9278506516625 1622.4225215258539 550.0508477172621Q1617.9818072664189 548.1509545031738 1614.6856069913742 544.8547542281291Q1611.3894067163292 541.5585539530844 1609.4895135022412 537.1178396936491Q1607.6125105678402 532.7000157139016 1607.6125105678402 527.7099347419588L1607.6125105678402 527.7099347419588L1607.6125105678402 526.9087749528854Q1607.6125105678402 521.9186939809427 1609.4895135022412 517.5008700011953Q1611.3894067163292 513.06015574176 1614.6856069913742 509.76395546671523Q1617.9818072664189 506.4677551916705 1622.4225215258539 504.5678619775822Q1626.8403455056014 502.6908590431817 1631.8304264775443 502.6908590431817L1631.8304264775443 502.6908590431817L1652.7521421122033 502.6908590431817L1652.7521421122033 489.963863536759Q1652.7521421122033 486.9881271773436 1651.6305184075004 484.37863529293315Q1650.508894702798 481.7691434085227 1648.563220929334 479.8234696350588Q1646.640437435558 477.90068614128273 1644.0309455511474 476.77906243658003Q1641.3985633870493 475.63454845218945 1638.422827027634 475.63454845218945L1638.422827027634 475.63454845218945L1632.6315862666174 475.63454845218945Q1629.655849907202 475.63454845218945 1627.0463580227915 476.77906243658003Q1624.4368661383814 477.90068614128273 1622.4911923649174 479.8234696350588Q1620.5684088711414 481.7691434085227 1619.4467851664385 484.37863529293315Q1618.3022711820481 486.9881271773436 1618.3022711820481 489.963863536759L1618.3022711820481 489.963863536759L1618.3022711820481 492.9395998961744L1608.4136703569138 491.33728031802764L1608.4136703569138 490.53612052895426Q1608.4136703569138 485.5460395570115 1610.3135635710023 481.12821557726403Q1612.1905665054023 476.6875013178288 1615.4867667804474 473.39130104278405Q1618.782967055492 470.09510076773927 1623.2236813149275 468.195207553651Q1627.641505294675 466.31820461925054 1632.6315862666174 466.31820461925054L1632.6315862666174 466.31820461925054L1638.422827027634 466.31820461925054Q1643.4129079995764 466.31820461925054 1647.8536222590114 468.195207553651Q1652.271446238759 470.09510076773927 1655.567646513804 473.39130104278405Q1658.8638467888486 476.6875013178288 1660.763740002937 481.12821557726403Q1662.6407429373376 485.5460395570115 1662.6407429373376 490.53612052895426L1662.6407429373376 490.53612052895426L1662.6407429373376 550.3255310735158ZM1652.7521421122033 528.2821917341541L1652.7521421122033 510.4048832979739L1631.8304264775443 510.4048832979739Q1628.854690118129 510.4048832979739 1626.2451982337184 511.5265070026767Q1623.6128160696203 512.6710209870672 1621.6900325758443 514.6395850402189Q1619.7672490820678 516.6081490933707 1618.6227350976774 519.217640977781Q1617.5011113929745 521.8271328621915 1617.5011113929745 524.8257595012947L1617.5011113929745 524.8257595012947L1617.5011113929745 528.2821917341541Q1617.5011113929745 531.2579280935695 1618.6227350976774 533.8674199779799Q1619.7672490820678 536.4769118623904 1621.6900325758443 538.4225856358543Q1623.6128160696203 540.3453691296304 1626.2451982337184 541.466992834333Q1628.854690118129 542.5886165390358 1631.8304264775443 542.5886165390358L1631.8304264775443 542.5886165390358L1638.422827027634 542.5886165390358Q1641.3985633870493 542.5886165390358 1644.0309455511474 541.466992834333Q1646.640437435558 540.3453691296304 1648.563220929334 538.4225856358543Q1650.508894702798 536.4769118623904 1651.6305184075004 533.8674199779799Q1652.7521421122033 531.2579280935695 1652.7521421122033 528.2821917341541L1652.7521421122033 528.2821917341541ZM1721.468761735011 550.3255310735158L1712.4728818177014 550.3255310735158Q1707.9634967192028 550.3255310735158 1703.9805880535237 548.6316503766178Q1699.9976793878445 546.9377696797198 1697.0448333081167 543.9620333203045Q1694.114877508077 540.986296960889 1692.3752162518035 537.0491688545856Q1690.6584452752177 533.1120407482822 1690.6584452752177 528.6026556497834L1690.6584452752177 528.6026556497834L1690.6584452752177 477.32842914908747L1675.848434317204 477.32842914908747L1675.848434317204 467.9205241973973L1690.6584452752177 467.9205241973973L1690.6584452752177 448.120432267441L1700.547046100352 446.51811268929424L1700.547046100352 467.9205241973973L1721.468761735011 467.9205241973973L1721.468761735011 477.32842914908747L1700.547046100352 477.32842914908747L1700.547046100352 529.0833515232275Q1700.547046100352 531.5783920091989 1701.4855475675522 533.7071880201653Q1702.401158755065 535.8359840311316 1704.0263686128992 537.4383036092784Q1705.628688191046 539.0635134671129 1707.8032647613882 539.9791246546254Q1709.97784133173 540.9176261218256 1712.4728818177014 540.9176261218256L1712.4728818177014 540.9176261218256L1721.468761735011 540.9176261218256L1721.468761735011 550.3255310735158ZM1844.1148803023007 489.6433996211296L1844.1148803023007 550.3255310735158L1840.818680027256 550.3255310735158L1834.7756461896738 541.0778580796402Q1830.9987500411853 546.067939051583 1825.6195343145496 548.9978948516228Q1820.2174283082263 551.9278506516625 1813.625027758137 551.9278506516625L1813.625027758137 551.9278506516625L1807.5819939205549 551.9278506516625Q1801.6991920407877 551.9278506516625 1796.5259888313421 549.7303838016328Q1791.329895342209 547.510026671915 1787.4614380749695 543.6415694046751Q1783.5929808077294 539.7731121374351 1781.3955139576997 534.6227992076776Q1779.175156827982 529.4724862779203 1779.175156827982 523.6125746778407L1779.175156827982 523.6125746778407L1779.175156827982 461.64858756293717Q1779.175156827982 455.7657856831698 1781.3955139576997 450.61547275341235Q1783.5929808077294 445.465159823655 1787.4614380749695 441.596702556415Q1791.329895342209 437.75113556886276 1796.5259888313421 435.5307784391451Q1801.6991920407877 433.31042130942745 1807.5819939205549 433.31042130942745L1807.5819939205549 433.31042130942745L1815.7996043284788 433.31042130942745Q1821.6595159285584 433.31042130942745 1826.8098288583155 435.5307784391451Q1831.9601417880735 437.75113556886276 1835.8285990553131 441.596702556415Q1839.6970563225532 445.465159823655 1841.917413452271 450.61547275341235Q1844.1148803023007 455.7657856831698 1844.1148803023007 461.64858756293717L1844.1148803023007 461.64858756293717L1844.1148803023007 466.31820461925054L1833.7455836037225 467.9205241973973L1833.7455836037225 461.64858756293717Q1833.7455836037225 457.7801302956971 1832.2806057037028 454.43814946127674Q1830.8385180833707 451.0961686268564 1828.3434775973992 448.601128140885Q1825.8484371114278 446.10608765491367 1822.5064562770076 444.6640000345816Q1819.164475442587 443.2219124142495 1815.318908455035 443.2219124142495L1815.318908455035 443.2219124142495L1808.0626897939987 443.2219124142495Q1804.1942325267587 443.2219124142495 1800.8751419720265 444.6640000345816Q1797.533161137606 446.10608765491367 1794.992340092259 448.601128140885Q1792.451519046912 451.0961686268564 1791.0094314265798 454.43814946127674Q1789.5673438062481 457.7801302956971 1789.5673438062481 461.64858756293717L1789.5673438062481 461.64858756293717L1789.5673438062481 523.6125746778407Q1789.5673438062481 527.4810319450808 1791.0094314265798 530.8001224998134Q1792.451519046912 534.1421033342336 1794.992340092259 536.6829243795806Q1797.533161137606 539.2237454249276 1800.8751419720265 540.6658330452597Q1804.1942325267587 542.1079206655918 1808.0626897939987 542.1079206655918L1808.0626897939987 542.1079206655918L1815.318908455035 542.1079206655918Q1819.164475442587 542.1079206655918 1822.5064562770076 540.6658330452597Q1825.8484371114278 539.2237454249276 1828.3434775973992 536.6829243795806Q1830.8385180833707 534.1421033342336 1832.2806057037028 530.8001224998134Q1833.7455836037225 527.4810319450808 1833.7455836037225 523.6125746778407L1833.7455836037225 523.6125746778407L1833.7455836037225 499.5548907259517L1815.318908455035 499.5548907259517L1815.318908455035 489.6433996211296L1844.1148803023007 489.6433996211296ZM1920.6599755783395 550.3255310735158L1917.3408850236074 550.3255310735158L1911.87010817822 542.1079206655918Q1908.5052370641124 546.548634925027 1903.4235949734184 549.2496879281887Q1898.3648431624124 551.9278506516625 1892.3218093248302 551.9278506516625L1892.3218093248302 551.9278506516625L1889.8267688388587 551.9278506516625Q1884.8366878669158 551.9278506516625 1880.4188638871683 550.0508477172621Q1875.9781496277333 548.1509545031738 1872.6819493526887 544.8547542281291Q1869.385749077644 541.5585539530844 1867.4858558635556 537.1178396936491Q1865.608852929155 532.7000157139016 1865.608852929155 527.7099347419588L1865.608852929155 527.7099347419588L1865.608852929155 526.9087749528854Q1865.608852929155 521.9186939809427 1867.4858558635556 517.5008700011953Q1869.385749077644 513.06015574176 1872.6819493526887 509.76395546671523Q1875.9781496277333 506.4677551916705 1880.4188638871683 504.5678619775822Q1884.8366878669158 502.6908590431817 1889.8267688388587 502.6908590431817L1889.8267688388587 502.6908590431817L1910.7484844735177 502.6908590431817L1910.7484844735177 489.963863536759Q1910.7484844735177 486.9881271773436 1909.6268607688153 484.37863529293315Q1908.5052370641124 481.7691434085227 1906.5595632906484 479.8234696350588Q1904.6367797968724 477.90068614128273 1902.0272879124618 476.77906243658003Q1899.3949057483637 475.63454845218945 1896.4191693889484 475.63454845218945L1896.4191693889484 475.63454845218945L1890.6279286279323 475.63454845218945Q1887.652192268517 475.63454845218945 1885.0427003841064 476.77906243658003Q1882.4332084996959 477.90068614128273 1880.4875347262323 479.8234696350588Q1878.5647512324558 481.7691434085227 1877.443127527753 484.37863529293315Q1876.2986135433625 486.9881271773436 1876.2986135433625 489.963863536759L1876.2986135433625 489.963863536759L1876.2986135433625 492.9395998961744L1866.4100127182282 491.33728031802764L1866.4100127182282 490.53612052895426Q1866.4100127182282 485.5460395570115 1868.3099059323167 481.12821557726403Q1870.1869088667172 476.6875013178288 1873.4831091417618 473.39130104278405Q1876.8021996964944 470.09510076773927 1881.220023676242 468.195207553651Q1885.6378476559894 466.31820461925054 1890.6279286279323 466.31820461925054L1890.6279286279323 466.31820461925054L1896.4191693889484 466.31820461925054Q1901.4092503608913 466.31820461925054 1905.8499646203263 468.195207553651Q1910.2677886000738 470.09510076773927 1913.5639888751184 473.39130104278405Q1916.860189150163 476.6875013178288 1918.7600823642515 481.12821557726403Q1920.6599755783395 485.5460395570115 1920.6599755783395 490.53612052895426L1920.6599755783395 490.53612052895426L1920.6599755783395 550.3255310735158ZM1910.7484844735177 528.2821917341541L1910.7484844735177 510.4048832979739L1889.8267688388587 510.4048832979739Q1886.8510324794433 510.4048832979739 1884.2415405950333 511.5265070026767Q1881.6091584309347 512.6710209870672 1879.6863749371587 514.6395850402189Q1877.7635914433827 516.6081490933707 1876.6419677386798 519.217640977781Q1875.4974537542894 521.8271328621915 1875.4974537542894 524.8257595012947L1875.4974537542894 524.8257595012947L1875.4974537542894 528.2821917341541Q1875.4974537542894 531.2579280935695 1876.6419677386798 533.8674199779799Q1877.7635914433827 536.4769118623904 1879.6863749371587 538.4225856358543Q1881.6091584309347 540.3453691296304 1884.2415405950333 541.466992834333Q1886.8510324794433 542.5886165390358 1889.8267688388587 542.5886165390358L1889.8267688388587 542.5886165390358L1896.4191693889484 542.5886165390358Q1899.3949057483637 542.5886165390358 1902.0272879124618 541.466992834333Q1904.6367797968724 540.3453691296304 1906.5595632906484 538.4225856358543Q1908.5052370641124 536.4769118623904 1909.6268607688153 533.8674199779799Q1910.7484844735177 531.2579280935695 1910.7484844735177 528.2821917341541L1910.7484844735177 528.2821917341541ZM2037.331731147111 550.3255310735158L2027.4431303219767 550.3255310735158L2027.4431303219767 489.963863536759Q2027.4431303219767 486.9881271773436 2026.3215066172738 484.37863529293315Q2025.1769926328834 481.7691434085227 2023.2542091391074 479.8234696350588Q2021.3314256453314 477.90068614128273 2018.6990434812333 476.77906243658003Q2016.0895515968227 475.63454845218945 2013.113815237407 475.63454845218945L2013.113815237407 475.63454845218945L2008.2152953842156 475.63454845218945Q2005.2166687451127 475.63454845218945 2002.607176860702 476.77906243658003Q1999.9976849762916 477.90068614128273 1998.02912092314 479.8234696350588Q1996.0605568699884 481.7691434085227 1994.916042885598 484.37863529293315Q1993.7944191808951 486.9881271773436 1993.7944191808951 489.963863536759L1993.7944191808951 489.963863536759L1993.7944191808951 550.3255310735158L1983.974489194824 550.3255310735158L1983.974489194824 489.963863536759Q1983.974489194824 486.9881271773436 1982.8528654901215 484.37863529293315Q1981.7312417854187 481.7691434085227 1979.762677732267 479.8234696350588Q1977.7941136791155 477.90068614128273 1975.1617315150174 476.77906243658003Q1972.552239630607 475.63454845218945 1969.576503271191 475.63454845218945L1969.576503271191 475.63454845218945L1964.6779834179997 475.63454845218945Q1961.7022470585844 475.63454845218945 1959.0698648944863 476.77906243658003Q1956.4603730100757 477.90068614128273 1954.5375895162997 479.8234696350588Q1952.5919157428357 481.7691434085227 1951.4702920381333 484.37863529293315Q1950.3486683334304 486.9881271773436 1950.3486683334304 489.963863536759L1950.3486683334304 489.963863536759L1950.3486683334304 550.3255310735158L1940.437177228608 550.3255310735158L1940.437177228608 467.9205241973973L1943.7562677833407 467.9205241973973L1949.1354835099764 476.29836656313597Q1952.5232449037726 471.69742034588603 1957.6277772741541 468.9963673427244Q1962.7323096445357 466.31820461925054 1968.775343482118 466.31820461925054L1968.775343482118 466.31820461925054L1969.576503271191 466.31820461925054Q1976.5809288556616 466.31820461925054 1982.2119376588626 469.77463685210995Q1987.842946462064 473.23106908496936 1990.9102439402309 478.953639006922L1990.9102439402309 478.953639006922Q1992.443892679314 476.13813460532134 1994.6871400887198 473.8033260771646Q1996.9303874981251 471.4685175490079 1999.6772210606623 469.82041741148555Q2002.401164343512 468.1723172739632 2005.628693779493 467.23381580676295Q2008.856223215474 466.31820461925054 2012.3126554483338 466.31820461925054L2012.3126554483338 466.31820461925054L2013.113815237407 466.31820461925054Q2018.1038962093498 466.31820461925054 2022.5217201890973 468.195207553651Q2026.9624344485328 470.09510076773927 2030.2586347235774 473.39130104278405Q2033.5548349986225 476.6875013178288 2035.4547282127105 481.12821557726403Q2037.331731147111 485.5460395570115 2037.331731147111 490.53612052895426L2037.331731147111 490.53612052895426L2037.331731147111 550.3255310735158ZM2112.182945726252 527.7099347419588L2112.182945726252 527.7099347419588Q2112.182945726252 532.7000157139016 2110.283052512164 537.1178396936491Q2108.406049577763 541.5585539530844 2105.086959023031 544.8547542281291Q2101.790758747986 548.1509545031738 2097.3729347682383 550.0508477172621Q2092.955110788491 551.9278506516625 2087.9650298165484 551.9278506516625L2087.9650298165484 551.9278506516625L2081.349738986771 551.9278506516625Q2076.3596580148283 551.9278506516625 2071.941834035081 550.0508477172621Q2067.5240100553333 548.1509545031738 2064.2049195006007 544.8547542281291Q2060.908719225556 541.5585539530844 2059.0317162911556 537.1178396936491Q2057.131823077067 532.7000157139016 2057.131823077067 527.7099347419588L2057.131823077067 527.7099347419588L2057.131823077067 490.53612052895426Q2057.131823077067 485.5460395570115 2059.0317162911556 481.12821557726403Q2060.908719225556 476.6875013178288 2064.2049195006007 473.39130104278405Q2067.5240100553333 470.09510076773927 2071.941834035081 468.195207553651Q2076.3596580148283 466.31820461925054 2081.349738986771 466.31820461925054L2081.349738986771 466.31820461925054L2087.9650298165484 466.31820461925054Q2092.955110788491 466.31820461925054 2097.3729347682383 468.195207553651Q2101.790758747986 470.09510076773927 2105.086959023031 473.39130104278405Q2108.406049577763 476.6875013178288 2110.283052512164 481.12821557726403Q2112.182945726252 485.5460395570115 2112.182945726252 490.53612052895426L2112.182945726252 490.53612052895426L2112.182945726252 509.9241874245299L2067.0204239022014 509.9241874245299L2067.0204239022014 528.2821917341541Q2067.0204239022014 531.2579280935695 2068.1649378865923 533.8674199779799Q2069.2865615912947 536.4769118623904 2071.2093450850707 538.4225856358543Q2073.1550188585347 540.3453691296304 2075.7645107429453 541.466992834333Q2078.3740026273554 542.5886165390358 2081.349738986771 542.5886165390358L2081.349738986771 542.5886165390358L2087.9650298165484 542.5886165390358Q2090.9407661759633 542.5886165390358 2093.550258060374 541.466992834333Q2096.159749944785 540.3453691296304 2098.1054237182484 538.4225856358543Q2100.0282072120244 536.4769118623904 2101.1498309167273 533.8674199779799Q2102.27145462143 531.2579280935695 2102.27145462143 528.2821917341541L2102.27145462143 528.2821917341541L2102.27145462143 522.8114148887673L2112.182945726252 524.4137344669141L2112.182945726252 527.7099347419588ZM2102.27145462143 502.2101631697377L2102.27145462143 489.963863536759Q2102.27145462143 486.9881271773436 2101.1498309167273 484.37863529293315Q2100.0282072120244 481.7691434085227 2098.1054237182484 479.8234696350588Q2096.159749944785 477.90068614128273 2093.550258060374 476.77906243658003Q2090.9407661759633 475.63454845218945 2087.9650298165484 475.63454845218945L2087.9650298165484 475.63454845218945L2081.349738986771 475.63454845218945Q2078.3740026273554 475.63454845218945 2075.7645107429453 476.77906243658003Q2073.1550188585347 477.90068614128273 2071.2093450850707 479.8234696350588Q2069.2865615912947 481.7691434085227 2068.1649378865923 484.37863529293315Q2067.0204239022014 486.9881271773436 2067.0204239022014 489.963863536759L2067.0204239022014 489.963863536759L2067.0204239022014 502.2101631697377L2102.27145462143 502.2101631697377ZM2166.089554391046 477.32842914908747L2156.2009535659117 477.32842914908747Q2153.2252172064964 477.32842914908747 2150.5928350423983 478.472943133478Q2147.983343157988 479.59456683818075 2146.0605596642117 481.51735033195683Q2144.114885890748 483.46302410542074 2142.9932621860453 486.0725159898312Q2141.8716384813424 488.6820078742416 2141.8716384813424 491.65774423365696L2141.8716384813424 491.65774423365696L2141.8716384813424 550.3255310735158L2131.9830376562086 550.3255310735158L2131.9830376562086 467.9205241973973L2135.2792379312527 467.9205241973973L2140.6584536578885 476.29836656313597Q2144.0462150516846 471.69742034588603 2149.1507474220666 468.9963673427244Q2154.255279792448 466.31820461925054 2160.2983136300304 466.31820461925054L2160.2983136300304 466.31820461925054L2166.089554391046 466.31820461925054L2166.089554391046 477.32842914908747ZM2235.9506879982446 529.4038154388568L2235.9506879982446 529.4038154388568Q2235.9506879982446 534.3938964107996 2233.936343385717 538.5370370342933Q2231.92199877319 542.680177657787 2228.4655665403307 545.6559140172025Q2225.009134307471 548.6316503766178 2220.453968649597 550.2797505141402Q2215.8988029917223 551.9278506516625 2210.90872201978 551.9278506516625L2210.90872201978 551.9278506516625L2204.31632146969 551.9278506516625Q2199.326240497747 551.9278506516625 2194.7939651195607 550.0508477172621Q2190.2387994616865 548.1509545031738 2186.805257508515 544.8547542281291Q2183.394605835031 541.5585539530844 2181.334480663128 537.1178396936491Q2179.297245770913 532.7000157139016 2179.297245770913 527.7099347419588L2179.297245770913 527.7099347419588L2179.297245770913 524.4137344669141L2189.185846596047 522.8114148887673L2189.185846596047 528.2821917341541Q2189.185846596047 531.2579280935695 2190.4448119788767 533.8674199779799Q2191.6808870820187 536.4769118623904 2193.7867928132973 538.4225856358543Q2195.869808264888 540.3453691296304 2198.616641827425 541.466992834333Q2201.340585110275 542.5886165390358 2204.31632146969 542.5886165390358L2204.31632146969 542.5886165390358L2210.90872201978 542.5886165390358Q2213.9073486588827 542.5886165390358 2216.6312919417323 541.718785910899Q2219.3781255042695 540.8260650030744 2221.506921515236 539.177964865552Q2223.6357175262024 537.5298647280297 2224.871792629344 535.195056199873Q2226.130758012174 532.8602476717163 2226.130758012174 529.8845113123009L2226.130758012174 529.8845113123009Q2226.130758012174 525.4666873325534 2224.2079745183974 522.6511829309527Q2222.262300744934 519.835678529352 2219.080551868328 517.9357853152637Q2215.8988029917223 516.0358921011754 2211.84722348698 514.7998169980336Q2207.7727537025494 513.540851615204 2203.515161680617 512.3047765120623Q2199.257569658684 511.0458111292327 2195.1830998742535 509.4434915510859Q2191.1315203695112 507.84117197293915 2187.9497714929053 505.20878980884095Q2184.7680226162997 502.5992979244305 2182.8223488428357 498.66216981812704Q2180.8995653490597 494.7250417118236 2180.8995653490597 488.84223983205624L2180.8995653490597 488.84223983205624Q2180.8995653490597 483.85215886011355 2182.8223488428357 479.7090182366198Q2184.7680226162997 475.5658776131261 2188.064222891345 472.59014125371067Q2191.360423166389 469.61440489429526 2195.755356866449 467.9663047567729Q2200.127400286821 466.31820461925054 2205.1174812587633 466.31820461925054L2205.1174812587633 466.31820461925054L2210.90872201978 466.31820461925054Q2215.8988029917223 466.31820461925054 2220.3395172511578 468.195207553651Q2224.7573412309052 470.09510076773927 2228.05354150595 473.39130104278405Q2231.3497417809945 476.6875013178288 2233.249634995083 481.12821557726403Q2235.149528209171 485.5460395570115 2235.149528209171 490.53612052895426L2235.149528209171 490.53612052895426L2235.149528209171 490.85658444458363L2225.238037104349 492.45890402273034L2225.238037104349 489.963863536759Q2225.238037104349 486.9881271773436 2224.1164133996463 484.37863529293315Q2222.994789694944 481.7691434085227 2221.04911592148 479.8234696350588Q2219.1263324277033 477.90068614128273 2216.5168405432933 476.77906243658003Q2213.9073486588827 475.63454845218945 2210.90872201978 475.63454845218945L2210.90872201978 475.63454845218945L2205.1174812587633 475.63454845218945Q2202.141744899348 475.63454845218945 2199.532253014938 476.5272693600141Q2196.9227611305273 477.4199902678387 2194.9770873570633 479.0680904053611Q2193.0543038632873 480.71619054288345 2191.9326801585844 483.05099907104017Q2190.8110564538815 485.3858075991968 2190.8110564538815 488.36154395861223L2190.8110564538815 488.36154395861223Q2190.8110564538815 492.619135980545 2192.733839947658 495.3201889837067Q2194.656623441434 498.02124198686835 2197.8383723180395 499.875354641581Q2201.0201211946455 501.7294672962937 2205.0945909790757 502.96554239943544Q2209.146170483818 504.22450778226505 2213.3808722260633 505.5521440041581Q2217.59268368862 506.8797802260511 2221.667153473051 508.5507706432613Q2225.718732977793 510.2446513401593 2228.900481854399 512.8999237839453Q2232.0822307310045 515.5551962277314 2234.0050142247806 519.5381048934105Q2235.9506879982446 523.5210135590895 2235.9506879982446 529.4038154388568Z " fill="#fcedda" transform="matrix(0.391332466741855,0,0,0.391332466741855,0,101.08163285913594)"/></g></svg>